PathFileType	4	(X/Y/Z)	C:\Users\°ÂÌØÂü\Desktop\20210112\bx_n_0_1801-Unnamed.trc
DataRate	CameraRate	NumFrames	NumMarkers	Units	OrigDataRate	OrigDataStartFrame	OrigNumFrames
50.00	50.00	       7	0	mm	50.00	199	       397
Frame#	Time	
		

199	3.960	-494.26416	-61.74445	965.67273	-615.29120	273.66501	459.97382	-829.15546	305.82877	599.88232							-693.57019	296.99344	577.23254	-1022.80847	116.61329	718.82776				-518.55359	19.13854	466.25504	-558.66846	272.10977	514.74640	-507.95859	221.15718	478.33392				-701.74750	81.84325	204.72519	-648.38757	-61.20592	168.65744	-694.54272	146.08905	206.15210	-751.19757	220.50035	207.28827	-608.37927	-64.94218	167.91519	-882.65460	296.15411	144.69444	-669.31573	57.52486	151.08023	-596.48523	25.19624	165.24742	-552.42969	-34.21427	167.82384	-586.84015	212.88045	174.31714	-653.80963	290.20132	158.27104	-619.86920	298.81406	160.45140	-551.31671	251.57700	165.91138	-528.17303	304.13773	146.65773	-376.79398	120.09451	1238.33411	-494.32214	287.78275	974.15912	-517.84668	-72.83995	143.21233	-787.07178	52.73773	178.24901	-786.37421	167.25002	190.44603				-628.75049	-39.58863	456.67474	-744.55743	-6.95937	211.10619	-875.91949	-78.63776	141.18161				-525.23804	159.50105	538.93695	-671.21423	165.46657	152.81813	-822.03235	-67.42258	631.13000							-562.30792	-33.50103	515.11108	-714.93817	-60.03388	594.16797	-579.36237	-34.99522	548.04706	
200	3.980	-494.76175	-61.43598	965.28149	-615.69086	273.46194	459.89334	-829.28308	305.87024	599.93311	-545.79364	82.16495	538.70270				-693.60712	297.09418	577.44257	-1023.23187	116.09061	718.13379				-518.27533	19.62829	466.43710	-558.81561	271.61011	514.87616	-507.98795	221.12257	478.79691				-701.77881	81.93158	204.64664	-648.30237	-61.04839	168.70183	-694.52527	146.17160	206.21027	-751.26343	220.28955	207.69054	-608.25580	-64.95127	167.86552	-882.46967	296.17999	144.73534	-669.71411	57.27494	150.45436	-596.74622	25.39899	165.12344	-552.39307	-34.40665	167.82288	-586.86285	212.77284	174.21904	-653.75201	290.20801	158.34953	-619.78320	298.52368	160.80679	-551.41632	251.60915	165.93423	-528.13885	304.07614	146.58961	-377.15421	120.32907	1238.03088	-494.69330	287.67010	974.10980	-517.84668	-72.83995	143.21233	-787.14319	52.79756	178.08138	-786.43933	167.32608	190.41986				-628.72198	-39.09253	456.64642	-744.61572	-6.64021	211.12625	-875.87097	-78.64214	141.18979				-525.23804	159.50105	538.93695	-671.19147	165.21912	153.13371	-822.05725	-67.58414	630.93610							-562.08478	-33.32881	515.62762	-714.90088	-59.38750	594.11359	-579.34705	-34.73115	547.85675	
201	4.000	-495.43759	-61.51969	965.58990	-615.69086	273.46194	459.89334	-829.87860	305.23135	599.49530	-546.42102	82.68774	538.02533	-574.96997	108.20397	773.04498	-693.89978	297.11572	577.77264	-1023.51788	115.35106	717.97180				-518.33704	20.26085	466.68512	-559.31403	271.74265	515.48462	-508.56720	220.90321	478.92157				-701.82928	82.07093	204.54930	-648.20825	-60.87330	169.09988	-694.51605	146.07709	206.15685	-751.28961	220.37599	207.60571	-608.29938	-64.89226	167.83063	-882.46967	296.17999	144.73534	-669.67200	57.15387	150.55562	-596.57349	25.27818	165.32536	-552.48853	-34.43972	167.87128	-586.86212	212.95271	174.23712	-653.75201	290.20801	158.34953	-619.70953	298.50943	160.87480	-551.58179	251.44102	165.88779	-528.16705	304.26614	146.67952	-377.47946	120.42840	1237.99805	-495.32361	287.84171	974.19763	-517.91669	-72.97008	143.18219	-787.05969	52.88049	178.06874	-786.43933	167.32608	190.41986				-628.78418	-38.64372	456.96777	-744.47711	-6.88269	211.07700	-875.95935	-78.64118	141.24994				-525.66437	159.12708	538.83197	-671.38727	165.49403	152.92502	-822.02417	-67.47578	630.70001							-561.87457	-32.62040	515.45154	-714.90051	-58.88460	593.71442	-579.34314	-33.97618	547.90265	
202	4.020	-495.75479	-61.56532	966.02130	-616.13092	273.31635	460.43988	-830.30200	304.78503	599.32080	-546.15924	83.53487	538.70337	-575.28510	108.54546	773.27393	-694.03430	296.95135	578.09680	-1023.93219	115.05760	717.99860				-518.29523	20.37435	466.81094	-559.67627	271.31595	515.34027	-508.86508	220.74240	479.30981				-701.82928	82.07093	204.54930	-648.19525	-60.82076	168.89384	-694.54272	146.08905	206.15210	-751.30621	220.36761	207.71500	-608.29938	-64.89226	167.83063	-882.49823	296.02063	144.78654	-669.56525	57.78572	150.98294	-596.58447	25.29009	165.25870	-552.46802	-34.28911	167.63579	-586.87579	213.01108	174.17136	-653.73047	290.13498	158.42851	-619.40149	298.26379	161.12209	-551.38373	251.45862	165.86209	-528.15125	304.22842	146.73567	-377.95212	120.23704	1238.37292	-495.86829	287.71997	973.97327	-517.84668	-72.83995	143.21233	-787.11896	52.74210	178.11717	-786.43933	167.32608	190.41986				-628.85046	-38.43111	457.17719	-744.34381	-6.63973	211.17891	-875.82056	-78.61485	141.45030				-525.73651	159.16183	539.20593	-671.21423	165.46657	152.81813	-822.13574	-67.50018	630.81708							-562.20459	-31.77259	515.55707	-715.12457	-59.05350	594.14386	-579.48572	-33.54931	547.99677	
203	4.040	-495.71957	-61.56555	966.19366	-616.43030	273.15976	460.75623	-830.82916	304.57205	599.71857	-546.80878	83.41972	538.67883	-575.91162	108.59307	773.66339	-694.68915	296.27463	578.01746	-1024.34338	114.88146	718.06116				-518.98785	20.78201	466.86844	-559.87244	271.16089	515.68164	-508.97510	220.41884	479.91159				-701.82928	82.07093	204.54930	-648.11993	-60.56996	169.16696	-694.69635	146.01038	206.26636	-751.37531	220.12015	207.40010	-608.29938	-64.89226	167.83063	-882.52698	296.03412	144.76205	-669.44049	57.62090	150.97449	-596.72083	25.60297	165.22191	-552.46802	-34.28911	167.63579	-586.84015	212.88045	174.31714	-653.64636	290.25223	158.51857	-619.45050	298.13599	161.46207	-551.57983	251.32524	165.74762	-528.28162	304.46152	146.79297	-378.52142	119.89999	1238.91736	-496.49991	287.99149	974.52814	-517.87280	-72.72388	143.07814	-787.29761	52.69814	177.93416	-786.43933	167.32608	190.41986				-629.10675	-38.35477	457.31363	-744.56110	-6.64433	211.13635	-875.99792	-78.69180	141.55168				-526.00519	159.03357	539.24139	-671.40265	165.64406	153.01039	-822.26843	-67.60431	630.87146							-562.66351	-31.73431	516.07568	-715.36420	-58.93699	594.18066	-579.64484	-33.31723	547.99744	
204	4.060	-495.78818	-61.39220	966.48083	-616.62732	272.84076	460.71390	-831.17273	304.23825	600.09869	-546.84900	83.89360	539.73792	-576.17798	108.54350	774.31604	-695.14227	295.96188	578.05304	-1024.78833	114.67388	718.53436				-519.16168	20.80381	466.98950	-560.05182	270.68427	516.07507	-509.50098	220.02724	479.81076				-701.82928	82.07093	204.54930	-648.19080	-60.51386	169.13504	-694.67883	146.09291	206.32452	-751.41400	220.27760	207.71060	-608.13696	-64.57231	168.02608	-882.52863	296.10559	144.67763	-669.79675	57.31871	150.56409	-596.71130	25.68992	165.11462	-552.47406	-34.16338	167.78333	-586.88300	212.81369	174.34196	-653.62567	290.10590	158.66281	-619.28229	297.91992	161.54727	-551.57983	251.32524	165.74762	-528.04895	303.84656	146.44554	-379.57660	119.78187	1239.52612	-497.36130	288.02142	975.46545	-517.82251	-72.76317	143.29663	-787.33038	52.60925	178.14110	-786.48718	167.28291	190.34550				-629.37347	-38.08892	457.15289	-744.62720	-6.86810	211.26530	-876.07831	-78.80435	141.53267				-526.77667	158.15382	539.91895	-671.38727	165.49403	152.92502	-822.73346	-67.73402	631.17029							-562.81659	-31.77390	516.18073	-715.76440	-59.15525	594.70374	-580.07904	-33.27609	548.22552	
205	4.080	-495.83829	-61.18456	966.73395	-617.09119	272.69470	460.72714	-831.72760	304.64389	600.75989	-547.31586	83.51789	539.44836				-695.61816	295.89758	578.65796	-1024.94604	114.53555	718.89819				-519.51190	20.65371	466.95883	-560.57550	270.99164	516.62183	-510.13089	219.64743	479.81760				-701.82928	82.07093	204.54930	-648.14600	-60.43531	169.24883	-694.66046	146.08441	206.35690	-751.65936	220.25340	207.53159	-608.19183	-64.66686	168.17548	-882.79449	296.13403	144.67595	-669.67200	57.15387	150.55562	-596.79462	25.51353	165.25092	-552.39777	-34.03709	167.78780	-586.84015	212.88045	174.31714	-653.53467	290.13318	158.71411	-619.22858	297.57568	161.80202	-551.45660	250.98361	165.92220	-527.99884	304.17502	146.66483	-380.18582	119.49969	1240.37207	-497.88004	287.87769	975.84961	-517.84668	-72.83995	143.21233	-787.24359	52.51182	178.06046	-786.50671	167.36258	190.24486				-629.65320	-38.09736	457.09915	-744.31775	-6.97294	211.32571	-875.99792	-78.69180	141.55168				-527.24603	157.83533	540.05731	-671.38727	165.49403	152.92502	-823.22711	-67.79958	631.39136							-563.00964	-32.06151	516.52374	-716.00720	-59.74880	594.90479	-580.52344	-33.41433	548.31897	
